<svg id="visual" viewBox="0 0 200 50" width="200" height="50" xmlns="http://www.w3.org/2000/svg" xmlns:xlink="http://www.w3.org/1999/xlink" version="1.1"><rect x="0" y="0" width="200" height="50" fill="#e4d064"></rect><path d="M0 23L4.8 25.5C9.7 28 19.3 33 28.8 35.5C38.3 38 47.7 38 57.2 35.5C66.7 33 76.3 28 85.8 28C95.3 28 104.7 33 114.2 33C123.7 33 133.3 28 142.8 27.5C152.3 27 161.7 31 171.2 32.3C180.7 33.7 190.3 32.3 195.2 31.7L200 31L200 51L195.2 51C190.3 51 180.7 51 171.2 51C161.7 51 152.3 51 142.8 51C133.3 51 123.7 51 114.2 51C104.7 51 95.3 51 85.8 51C76.3 51 66.7 51 57.2 51C47.7 51 38.3 51 28.8 51C19.3 51 9.7 51 4.8 51L0 51Z" fill="#ffffff" stroke-linecap="round" stroke-linejoin="miter"></path></svg>