<svg id="visual" viewBox="0 0 700 200" width="700" height="200" xmlns="http://www.w3.org/2000/svg" xmlns:xlink="http://www.w3.org/1999/xlink" version="1.1"><rect x="0" y="0" width="700" height="200" fill="#e5e5e5"></rect><path d="M0 93L16.7 103.3C33.3 113.7 66.7 134.3 100 145C133.3 155.7 166.7 156.3 200 146.2C233.3 136 266.7 115 300 114.3C333.3 113.7 366.7 133.3 400 133.3C433.3 133.3 466.7 113.7 500 112C533.3 110.3 566.7 126.7 600 132C633.3 137.3 666.7 131.7 683.3 128.8L700 126L700 201L683.3 201C666.7 201 633.3 201 600 201C566.7 201 533.3 201 500 201C466.7 201 433.3 201 400 201C366.7 201 333.3 201 300 201C266.7 201 233.3 201 200 201C166.7 201 133.3 201 100 201C66.7 201 33.3 201 16.7 201L0 201Z" fill="#e4d064" stroke-linecap="round" stroke-linejoin="miter"></path></svg>